<svg xmlns="http://www.w3.org/2000/svg" width="28" height="28" viewBox="0 0 28 28">
  <defs>
    <style>
      .cls-1 {
        fill: #375b7b;
        stroke-linecap: square;
        stroke-linejoin: bevel;
        opacity: 0.94;
      }

      .cls-2, .cls-3 {
        stroke: none;
      }

      .cls-3 {
        fill: #d1e1e3;
      }
    </style>
  </defs>
  <g id="liked" class="cls-1" transform="translate(2 2)">
    <path class="cls-2" d="M 12 25 C 8.527779579162598 25 5.263239860534668 23.6477108001709 2.807770013809204 21.19223022460938 C 0.352290004491806 18.73675918579102 -1 15.4722204208374 -1 12 C -1 8.527779579162598 0.352290004491806 5.263239860534668 2.807770013809204 2.807770013809204 C 5.263239860534668 0.352290004491806 8.527779579162598 -1 12 -1 C 15.4722204208374 -1 18.73675918579102 0.352290004491806 21.19223022460938 2.807770013809204 C 23.6477108001709 5.263239860534668 25 8.527779579162598 25 12 C 25 15.4722204208374 23.6477108001709 18.73675918579102 21.19223022460938 21.19223022460938 C 18.73675918579102 23.6477108001709 15.4722204208374 25 12 25 Z"/>
    <path class="cls-3" d="M 12 0 C 5.37299919128418 0 0 5.37299919128418 0 12 C 0 18.62699890136719 5.37299919128418 24 12 24 C 18.62699890136719 24 24 18.62699890136719 24 12 C 24 5.37299919128418 18.62699890136719 0 12 0 M 16.48400115966797 17 L 12.25399971008301 17 L 11 15.5 L 9.996999740600586 15.5 L 9.996999740600586 16 L 6 16 L 6 10 L 9.996999740600586 10 L 9.996999740600586 10.75 C 11.2480001449585 10.74600028991699 12.04800033569336 9.184000015258789 13.1269998550415 6 L 15.75 6 L 15.75 7.577999114990234 L 15.24899959564209 9.125 L 15.24899959564209 10 L 16.60799980163574 10 L 18 10.9060001373291 L 18 15.53699970245361 L 16.48400115966797 17 M 13.8439998626709 7 C 13.03699970245361 9.38700008392334 11.85900020599365 11.75 9.996999740600586 11.75 L 9.996999740600586 14.5 L 11.34899997711182 14.5 L 12.60299968719482 16 L 16.08099937438965 16 L 17 15.11200046539307 L 17 11.44799995422363 L 16.31100082397461 11 L 14.25 11 L 14.25 8.942999839782715 L 14.75 7.395999908447266 L 14.75 7 L 13.8439998626709 7 M 12 -2 C 15.73933029174805 -2 19.25498962402344 -0.5436897277832031 21.89933967590332 2.10066032409668 C 24.5436897277832 4.745010375976563 26 8.260669708251953 26 12 C 26 15.73933029174805 24.5436897277832 19.25498962402344 21.89933967590332 21.89933967590332 C 19.25498962402344 24.5436897277832 15.73933029174805 26 12 26 C 8.260669708251953 26 4.745010375976563 24.5436897277832 2.10066032409668 21.89933967590332 C -0.5436897277832031 19.25498962402344 -2 15.73933029174805 -2 12 C -2 8.260669708251953 -0.5436897277832031 4.745010375976563 2.10066032409668 2.10066032409668 C 4.745010375976563 -0.5436897277832031 8.260669708251953 -2 12 -2 Z"/>
  </g>
</svg>
